<svg xmlns="http://www.w3.org/2000/svg" version="1.1" xmlns:xlink="http://www.w3.org/1999/xlink" xmlns:svgjs="http://svgjs.dev/svgjs" width="1000" height="1000" viewBox="0 0 1000 1000"><rect width="1000" height="1000" fill="#000000"></rect><g transform="matrix(0.7,0,0,0.7,149.27173913043487,192.8833776595746)"><svg viewBox="0 0 161 141" data-background-color="#ffffff" preserveAspectRatio="xMidYMid meet" height="875" width="1000" xmlns="http://www.w3.org/2000/svg" xmlns:xlink="http://www.w3.org/1999/xlink"><g id="tight-bounds" transform="matrix(1,0,0,1,0.16749999999998977,0.19949999999997203)"><svg viewBox="0 0 160.6647261913044 140.60052000000002" height="140.60052000000002" width="160.6647261913044"><g><svg viewBox="0 0 160.6647261913044 140.60052000000002" height="140.60052000000002" width="160.6647261913044"><g><svg viewBox="0 0 160.6647261913044 140.60052000000002" height="140.60052000000002" width="160.6647261913044"><g><path d="M0 140.601v-140.601h160.665v140.601z" fill="#ffffff" stroke="transparent" stroke-width="0" rx="0%" data-fill-palette-color="tertiary"></path><path d="M3.283 137.317v-134.034h154.098v134.034z" fill="#000000" stroke="transparent" stroke-width="0" rx="0%" data-fill-palette-color="quaternary"></path><path d="M9.85 130.751v-120.901h140.965v120.901z" fill="#ffffff" stroke="transparent" stroke-width="0" data-fill-palette-color="tertiary"></path></g><g transform="matrix(1,0,0,1,19.699740000000006,19.69974)" id="textblocktransform"><svg viewBox="0 0 121.26524619130439 101.20104000000002" height="101.20104000000002" width="121.26524619130439" id="textblock"><g><svg viewBox="0 0 121.26524619130439 101.20104000000002" height="101.20104000000002" width="121.26524619130439"><g transform="matrix(1,0,0,1,0,0)"><svg width="121.26524619130439" viewBox="4 -28.75 34.45000076293945 28.75" height="101.20104000000002" data-palette-color="#ffffff"><path d="M4-25.3L4-25.3 9.7-28.75 20-28.75 20-23.1 10.3-23.1 10.3-17.2 20-17.2 20-11.5 10.3-11.5 10.3 0 4 0 4-25.3ZM38.45-25.3L38.45-25.3 32.55-28.75 22.25-28.75 22.25-23.1 32.15-23.1 32.15-17.2 22.25-17.2 22.25-11.5 32.15-11.5 32.15 0 38.45 0 38.45-25.3Z" opacity="1" transform="matrix(1,0,0,1,0,0)" fill="#000000" class="undefined-text-0" data-fill-palette-color="quaternary" id="text-0"></path></svg></g></svg></g></svg></g></svg></g><g></g></svg></g><defs></defs></svg><rect width="160.6647261913044" height="140.60052000000002" fill="none" stroke="none" visibility="hidden"></rect></g></svg></g></svg>